<svg id="my-svg" width="524" xmlns="http://www.w3.org/2000/svg" xmlns:xlink="http://www.w3.org/1999/xlink" class="flowchart" style="max-width: 524px; background-color: transparent;" viewBox="0 0 524.34375 525" role="graphics-document document" aria-roledescription="flowchart-v2"><style>#my-svg{font-family:"trebuchet ms",verdana,arial,sans-serif;font-size:16px;fill:#1a1a1a;}@keyframes edge-animation-frame{from{stroke-dashoffset:0;}}@keyframes dash{to{stroke-dashoffset:0;}}#my-svg .edge-animation-slow{stroke-dasharray:9,5!important;stroke-dashoffset:900;animation:dash 50s linear infinite;stroke-linecap:round;}#my-svg .edge-animation-fast{stroke-dasharray:9,5!important;stroke-dashoffset:900;animation:dash 20s linear infinite;stroke-linecap:round;}#my-svg .error-icon{fill:#e8f5e9;}#my-svg .error-text{fill:#170a16;stroke:#170a16;}#my-svg .edge-thickness-normal{stroke-width:1px;}#my-svg .edge-thickness-thick{stroke-width:3.5px;}#my-svg .edge-pattern-solid{stroke-dasharray:0;}#my-svg .edge-thickness-invisible{stroke-width:0;fill:none;}#my-svg .edge-pattern-dashed{stroke-dasharray:3;}#my-svg .edge-pattern-dotted{stroke-dasharray:2;}#my-svg .marker{fill:#546e7a;stroke:#546e7a;}#my-svg .marker.cross{stroke:#546e7a;}#my-svg svg{font-family:"trebuchet ms",verdana,arial,sans-serif;font-size:16px;}#my-svg p{margin:0;}#my-svg .label{font-family:"trebuchet ms",verdana,arial,sans-serif;color:#1a1a1a;}#my-svg .cluster-label text{fill:#1a1a1a;}#my-svg .cluster-label span{color:#1a1a1a;}#my-svg .cluster-label span p{background-color:transparent;}#my-svg .label text,#my-svg span{fill:#1a1a1a;color:#1a1a1a;}#my-svg .node rect,#my-svg .node circle,#my-svg .node ellipse,#my-svg .node polygon,#my-svg .node path{fill:#e3f2fd;stroke:#90caf9;stroke-width:1px;}#my-svg .rough-node .label text,#my-svg .node .label text,#my-svg .image-shape .label,#my-svg .icon-shape .label{text-anchor:middle;}#my-svg .node .katex path{fill:#000;stroke:#000;stroke-width:1px;}#my-svg .rough-node .label,#my-svg .node .label,#my-svg .image-shape .label,#my-svg .icon-shape .label{text-align:center;}#my-svg .node.clickable{cursor:pointer;}#my-svg .root .anchor path{fill:#546e7a!important;stroke-width:0;stroke:#546e7a;}#my-svg .arrowheadPath{fill:#0b0b0b;}#my-svg .edgePath .path{stroke:#546e7a;stroke-width:1px;}#my-svg .flowchart-link{stroke:#546e7a;fill:none;}#my-svg .edgeLabel{background-color:#ffffff;text-align:center;}#my-svg .edgeLabel p{background-color:#ffffff;}#my-svg .edgeLabel rect{opacity:0.5;background-color:#ffffff;fill:#ffffff;}#my-svg .labelBkg{background-color:rgba(255, 255, 255, 0.5);}#my-svg .cluster rect{fill:#f5f5f5;stroke:#bdbdbd;stroke-width:1px;}#my-svg .cluster text{fill:#1a1a1a;}#my-svg .cluster span{color:#1a1a1a;}#my-svg div.mermaidTooltip{position:absolute;text-align:center;max-width:200px;padding:2px;font-family:"trebuchet ms",verdana,arial,sans-serif;font-size:12px;background:#e8f5e9;border:1px solid hsl(124.6153846154, 0%, 83.5294117647%);border-radius:2px;pointer-events:none;z-index:100;}#my-svg .flowchartTitleText{text-anchor:middle;font-size:18px;fill:#1a1a1a;}#my-svg rect.text{fill:none;stroke-width:0;}#my-svg .icon-shape,#my-svg .image-shape{background-color:#ffffff;text-align:center;}#my-svg .icon-shape p,#my-svg .image-shape p{background-color:#ffffff;padding:2px;}#my-svg .icon-shape .label rect,#my-svg .image-shape .label rect{opacity:0.5;background-color:#ffffff;fill:#ffffff;}#my-svg .label-icon{display:inline-block;height:1em;overflow:visible;vertical-align:-0.125em;}#my-svg .node .label-icon path{fill:currentColor;stroke:revert;stroke-width:revert;}#my-svg .node .neo-node{stroke:#90caf9;}#my-svg [data-look="neo"].node rect,#my-svg [data-look="neo"].cluster rect,#my-svg [data-look="neo"].node polygon{stroke:url(#my-svg-gradient);filter:drop-shadow( 1px 2px 2px rgba(185,185,185,1));}#my-svg [data-look="neo"].node path{stroke:url(#my-svg-gradient);stroke-width:1px;}#my-svg [data-look="neo"].node .outer-path{filter:drop-shadow( 1px 2px 2px rgba(185,185,185,1));}#my-svg [data-look="neo"].node .neo-line path{stroke:#90caf9;filter:none;}#my-svg [data-look="neo"].node circle{stroke:url(#my-svg-gradient);filter:drop-shadow( 1px 2px 2px rgba(185,185,185,1));}#my-svg [data-look="neo"].node circle .state-start{fill:#000000;}#my-svg [data-look="neo"].icon-shape .icon{fill:url(#my-svg-gradient);filter:drop-shadow( 1px 2px 2px rgba(185,185,185,1));}#my-svg [data-look="neo"].icon-shape .icon-neo path{stroke:url(#my-svg-gradient);filter:drop-shadow( 1px 2px 2px rgba(185,185,185,1));}#my-svg :root{--mermaid-font-family:"trebuchet ms",verdana,arial,sans-serif;}</style><g><marker id="my-svg_flowchart-v2-pointEnd" class="marker flowchart-v2" viewBox="0 0 10 10" refX="5" refY="5" markerUnits="userSpaceOnUse" markerWidth="8" markerHeight="8" orient="auto"><path d="M 0 0 L 10 5 L 0 10 z" class="arrowMarkerPath" style="stroke-width: 1; stroke-dasharray: 1, 0;"/></marker><marker id="my-svg_flowchart-v2-pointStart" class="marker flowchart-v2" viewBox="0 0 10 10" refX="4.5" refY="5" markerUnits="userSpaceOnUse" markerWidth="8" markerHeight="8" orient="auto"><path d="M 0 5 L 10 10 L 10 0 z" class="arrowMarkerPath" style="stroke-width: 1; stroke-dasharray: 1, 0;"/></marker><marker id="my-svg_flowchart-v2-pointEnd-margin" class="marker flowchart-v2" viewBox="0 0 11.5 14" refX="11.5" refY="7" markerUnits="userSpaceOnUse" markerWidth="10.5" markerHeight="14" orient="auto"><path d="M 0 0 L 11.5 7 L 0 14 z" class="arrowMarkerPath" style="stroke-width: 0; stroke-dasharray: 1, 0;"/></marker><marker id="my-svg_flowchart-v2-pointStart-margin" class="marker flowchart-v2" viewBox="0 0 11.5 14" refX="1" refY="7" markerUnits="userSpaceOnUse" markerWidth="11.5" markerHeight="14" orient="auto"><polygon points="0,7 11.5,14 11.5,0" class="arrowMarkerPath" style="stroke-width: 0; stroke-dasharray: 1, 0;"/></marker><marker id="my-svg_flowchart-v2-circleEnd" class="marker flowchart-v2" viewBox="0 0 10 10" refX="11" refY="5" markerUnits="userSpaceOnUse" markerWidth="11" markerHeight="11" orient="auto"><circle cx="5" cy="5" r="5" class="arrowMarkerPath" style="stroke-width: 1; stroke-dasharray: 1, 0;"/></marker><marker id="my-svg_flowchart-v2-circleStart" class="marker flowchart-v2" viewBox="0 0 10 10" refX="-1" refY="5" markerUnits="userSpaceOnUse" markerWidth="11" markerHeight="11" orient="auto"><circle cx="5" cy="5" r="5" class="arrowMarkerPath" style="stroke-width: 1; stroke-dasharray: 1, 0;"/></marker><marker id="my-svg_flowchart-v2-circleEnd-margin" class="marker flowchart-v2" viewBox="0 0 10 10" refY="5" refX="12.25" markerUnits="userSpaceOnUse" markerWidth="14" markerHeight="14" orient="auto"><circle cx="5" cy="5" r="5" class="arrowMarkerPath" style="stroke-width: 0; stroke-dasharray: 1, 0;"/></marker><marker id="my-svg_flowchart-v2-circleStart-margin" class="marker flowchart-v2" viewBox="0 0 10 10" refX="-2" refY="5" markerUnits="userSpaceOnUse" markerWidth="14" markerHeight="14" orient="auto"><circle cx="5" cy="5" r="5" class="arrowMarkerPath" style="stroke-width: 0; stroke-dasharray: 1, 0;"/></marker><marker id="my-svg_flowchart-v2-crossEnd" class="marker cross flowchart-v2" viewBox="0 0 11 11" refX="12" refY="5.2" markerUnits="userSpaceOnUse" markerWidth="11" markerHeight="11" orient="auto"><path d="M 1,1 l 9,9 M 10,1 l -9,9" class="arrowMarkerPath" style="stroke-width: 2; stroke-dasharray: 1, 0;"/></marker><marker id="my-svg_flowchart-v2-crossStart" class="marker cross flowchart-v2" viewBox="0 0 11 11" refX="-1" refY="5.2" markerUnits="userSpaceOnUse" markerWidth="11" markerHeight="11" orient="auto"><path d="M 1,1 l 9,9 M 10,1 l -9,9" class="arrowMarkerPath" style="stroke-width: 2; stroke-dasharray: 1, 0;"/></marker><marker id="my-svg_flowchart-v2-crossEnd-margin" class="marker cross flowchart-v2" viewBox="0 0 15 15" refX="17.7" refY="7.5" markerUnits="userSpaceOnUse" markerWidth="12" markerHeight="12" orient="auto"><path d="M 1,1 L 14,14 M 1,14 L 14,1" class="arrowMarkerPath" style="stroke-width: 2.5;"/></marker><marker id="my-svg_flowchart-v2-crossStart-margin" class="marker cross flowchart-v2" viewBox="0 0 15 15" refX="-3.5" refY="7.5" markerUnits="userSpaceOnUse" markerWidth="12" markerHeight="12" orient="auto"><path d="M 1,1 L 14,14 M 1,14 L 14,1" class="arrowMarkerPath" style="stroke-width: 2.5; stroke-dasharray: 1, 0;"/></marker><g class="root"><g class="clusters"/><g class="edgePaths"><path d="M213.136,381.822L190.283,387.185C167.429,392.548,121.723,403.274,98.869,412.137C76.016,421,76.016,428,76.016,431.5L76.016,435" id="my-svg-L_demux_A_0" class="edge-thickness-normal edge-pattern-solid edge-thickness-normal edge-pattern-solid flowchart-link" style=";" data-edge="true" data-et="edge" data-id="L_demux_A_0" data-points="W3sieCI6MjEzLjEzNjM2MzU3NDI3NDE4LCJ5IjozODEuODIyMDkwOTE2MzA3MDV9LHsieCI6NzYuMDE1NjI1LCJ5Ijo0MTR9LHsieCI6NzYuMDE1NjI1LCJ5Ijo0Mzl9XQ==" data-look="classic" marker-end="url(#my-svg_flowchart-v2-pointEnd)"/><path d="M262.563,389.5L262.479,393.583C262.396,397.667,262.229,405.833,262.146,413.417C262.063,421,262.063,428,262.063,431.5L262.063,435" id="my-svg-L_demux_B_0" class="edge-thickness-normal edge-pattern-solid edge-thickness-normal edge-pattern-solid flowchart-link" style=";" data-edge="true" data-et="edge" data-id="L_demux_B_0" data-points="W3sieCI6MjYyLjU2MjUsInkiOjM4OS41fSx7IngiOjI2Mi4wNjI1LCJ5Ijo0MTR9LHsieCI6MjYyLjA2MjUsInkiOjQzOX1d" data-look="classic" marker-end="url(#my-svg_flowchart-v2-pointEnd)"/><path d="M311.993,381.816L334.697,387.18C357.402,392.544,402.81,403.272,425.514,412.136C448.219,421,448.219,428,448.219,431.5L448.219,435" id="my-svg-L_demux_C_0" class="edge-thickness-normal edge-pattern-solid edge-thickness-normal edge-pattern-solid flowchart-link" style=";" data-edge="true" data-et="edge" data-id="L_demux_C_0" data-points="W3sieCI6MzExLjk5MzAzMzE3ODc1MTQzLCJ5IjozODEuODE2MTk1OTQ1MzY1NX0seyJ4Ijo0NDguMjE4NzUsInkiOjQxNH0seyJ4Ijo0NDguMjE4NzUsInkiOjQzOX1d" data-look="classic" marker-end="url(#my-svg_flowchart-v2-pointEnd)"/><path d="M262.063,300L262.063,304.167C262.063,308.333,262.063,316.667,262.063,324.333C262.063,332,262.063,339,262.063,342.5L262.063,346" id="my-svg-L_input_demux_0" class="edge-thickness-normal edge-pattern-solid edge-thickness-normal edge-pattern-solid flowchart-link" style=";" data-edge="true" data-et="edge" data-id="L_input_demux_0" data-points="W3sieCI6MjYyLjA2MjUsInkiOjMwMH0seyJ4IjoyNjIuMDYyNSwieSI6MzI1fSx7IngiOjI2Mi4wNjI1LCJ5IjozNTB9XQ==" data-look="classic" marker-end="url(#my-svg_flowchart-v2-pointEnd)"/></g><g class="edgeLabels"><g class="edgeLabel"><g class="label" data-id="L_demux_A_0" transform="translate(0, 0)"><foreignObject width="0" height="0"><div xmlns="http://www.w3.org/1999/xhtml" class="labelBkg" style="display: table-cell; white-space: nowrap; line-height: 1.5; max-width: 200px; text-align: center;"><span class="edgeLabel"></span></div></foreignObject></g></g><g class="edgeLabel"><g class="label" data-id="L_demux_B_0" transform="translate(0, 0)"><foreignObject width="0" height="0"><div xmlns="http://www.w3.org/1999/xhtml" class="labelBkg" style="display: table-cell; white-space: nowrap; line-height: 1.5; max-width: 200px; text-align: center;"><span class="edgeLabel"></span></div></foreignObject></g></g><g class="edgeLabel"><g class="label" data-id="L_demux_C_0" transform="translate(0, 0)"><foreignObject width="0" height="0"><div xmlns="http://www.w3.org/1999/xhtml" class="labelBkg" style="display: table-cell; white-space: nowrap; line-height: 1.5; max-width: 200px; text-align: center;"><span class="edgeLabel"></span></div></foreignObject></g></g><g class="edgeLabel"><g class="label" data-id="L_input_demux_0" transform="translate(0, 0)"><foreignObject width="0" height="0"><div xmlns="http://www.w3.org/1999/xhtml" class="labelBkg" style="display: table-cell; white-space: nowrap; line-height: 1.5; max-width: 200px; text-align: center;"><span class="edgeLabel"></span></div></foreignObject></g></g></g><g class="nodes"><g class="root" transform="translate(86.5625, 0)"><g class="clusters"><g class="cluster" id="my-svg-input" data-look="classic"><rect style="" x="8" y="8" width="335" height="292"/><g class="cluster-label" transform="translate(55.5703125, 8)"><foreignObject width="239.859375" height="24"><div xmlns="http://www.w3.org/1999/xhtml" style="display: table-cell; white-space: nowrap; line-height: 1.5;"><span class="nodeLabel"><p>Sequencer output (raw reads)</p></span></div></foreignObject></g></g></g><g class="edgePaths"/><g class="edgeLabels"/><g class="nodes"><g class="node default" id="my-svg-flowchart-R-0" data-look="classic" transform="translate(175.5, 154)"><rect class="basic label-container" style="" x="-130" y="-111" width="260" height="222"/><g class="label" style="" transform="translate(-100, -96)"><rect/><foreignObject width="200" height="192"><div xmlns="http://www.w3.org/1999/xhtml" style="display: table; white-space: break-spaces; line-height: 1.5; max-width: 200px; text-align: center; width: 200px;"><span class="nodeLabel"><p>[SID-A] DNA fragment 1 [SID-A]<br />[SID-B] DNA fragment 2 [SID-B]<br />[SID-A] DNA fragment 3 [SID-A]<br />[SID-C] DNA fragment 4 [SID-C]</p></span></div></foreignObject></g></g></g></g><g class="node default" id="my-svg-flowchart-demux-2" data-look="classic" transform="translate(262.0625, 369.5)"><g class="basic label-container outer-path"><path d="M-33.9296875 -19.5 C-7.586454352206854 -19.5, 18.756778795586293 -19.5, 33.9296875 -19.5 C33.9296875 -19.5, 33.9296875 -19.5, 33.9296875 -19.5 C34.41108075492597 -19.484562655289654, 34.892474009851945 -19.469125310579305, 35.1790567896239 -19.45993515863156 C35.61900468111542 -19.417493914654123, 36.05895257260694 -19.375052670676688, 36.423292152847864 -19.3399052695533 C36.842990888997164 -19.27205163270499, 37.262689625146464 -19.20419799585668, 37.65728075967676 -19.140403561325776 C37.975313307186035 -19.067814707713108, 38.2933458546953 -18.99522585410044, 38.87595188623539 -18.862249829261074 C39.323248769435466 -18.729494462236545, 39.77054565263554 -18.596739095212016, 40.074297751460605 -18.50658706670804 C40.419638766393646 -18.379498380915333, 40.764979781326694 -18.252409695122623, 41.2473940951478 -18.074876768247425 C41.64236052140114 -17.900036847607826, 42.03732694765447 -17.72519692696823, 42.39042041279238 -17.568892924097174 C42.74040389902547 -17.386306763504493, 43.09038738525856 -17.20372060291181, 43.49867976407678 -16.990714730406097 C43.912460823128534 -16.739878220761515, 44.326241882180284 -16.489041711116933, 44.5676180736057 -16.342718045390892 C44.9251470232215 -16.093321327317696, 45.28267597283729 -15.843924609244496, 45.59284284457871 -15.627565626425154 C45.92823296226251 -15.360100932678185, 46.26362307994631 -15.092636238931213, 46.570141208501866 -14.848196188198123 C46.782805094470184 -14.65506047373978, 46.99546898043851 -14.461924759281438, 47.49549723676799 -14.007812326905688 C47.79089835499418 -13.702786419454302, 48.08629947322036 -13.397760512002915, 48.36510844296865 -13.10986736009568 C48.63882105177536 -12.788348955102663, 48.91253366058208 -12.466830550109647, 49.17540140812658 -12.158051136245305 C49.33406807316046 -11.94545225993046, 49.49273473819433 -11.732853383615616, 49.923046464640635 -11.156274872382312 C50.159083516971755 -10.793658575178451, 50.395120569302875 -10.43104227797459, 50.60497137860425 -10.108655082055241 C50.80912007280501 -9.746168403204875, 51.01326876700577 -9.38368172435451, 51.218373974273504 -9.019496659696287 C51.35493801180687 -8.735918513755934, 51.49150204934025 -8.45234036781558, 51.76073364880834 -7.893275190886684 C51.92116850997395 -7.496997982010596, 52.081603371139565 -7.1007207731345074, 52.229821729970325 -6.734618561215508 C52.324035287170815 -6.450862337819463, 52.4182488443713 -6.167106114423417, 52.62371063421488 -5.548287939305138 C52.72337404290228 -5.168228167585534, 52.82303745158968 -4.78816839586593, 52.94078178754556 -4.339158212148133 C53.00842748286067 -3.9918118636278366, 53.07607317817577 -3.64446551510754, 53.179732276581774 -3.1121979531509023 C53.230775937120974 -2.7163134017197454, 53.281819597660174 -2.3204288502885886, 53.33958020250937 -1.872449005199798 C53.35627676811162 -1.6123865187195636, 53.37297333371387 -1.3523240322393295, 53.41966871591342 -0.6250057626472757 C53.41966871591342 -0.179535504309567, 53.41966871591342 0.2659347540281417, 53.41966871591342 0.625005762647271 C53.40078276176296 0.919169743008386, 53.38189680761251 1.213333723369501, 53.33958020250937 1.8724490051997846 C53.304804182931285 2.1421649457455585, 53.27002816335321 2.411880886291332, 53.179732276581774 3.1121979531508885 C53.11651493572842 3.43680563744316, 53.05329759487506 3.7614133217354317, 52.94078178754556 4.339158212148129 C52.86183660220501 4.6402104189114235, 52.78289141686445 4.941262625674717, 52.62371063421489 5.548287939305125 C52.52838582513878 5.835391076296605, 52.433061016062666 6.1224942132880855, 52.229821729970325 6.734618561215495 C52.08754243196537 7.0860511780708295, 51.94526313396042 7.437483794926163, 51.76073364880834 7.893275190886679 C51.61108209996458 8.204029834090942, 51.46143055112082 8.514784477295205, 51.218373974273504 9.019496659696284 C51.08843140897252 9.250222842499742, 50.958488843671525 9.480949025303198, 50.60497137860425 10.108655082055236 C50.46194589140831 10.328380638109097, 50.31892040421237 10.54810619416296, 49.92304646464064 11.156274872382301 C49.739354390266236 11.402405517351761, 49.55566231589184 11.648536162321221, 49.17540140812658 12.158051136245302 C48.86510418187475 12.522543914613063, 48.55480695562292 12.887036692980823, 48.36510844296866 13.10986736009567 C48.064991761061314 13.419762474202832, 47.76487507915397 13.729657588309994, 47.49549723676799 14.007812326905684 C47.23137464540485 14.247681476080867, 46.967252054041715 14.48755062525605, 46.57014120850189 14.848196188198111 C46.35052521785449 15.023334096512459, 46.13090922720709 15.198472004826804, 45.59284284457871 15.627565626425152 C45.273829749844985 15.850095351457107, 44.95481665511126 16.07262507648906, 44.56761807360571 16.34271804539089 C44.3450830685592 16.477620073210932, 44.12254806351269 16.612522101030972, 43.49867976407678 16.990714730406093 C43.15992355662894 17.16744362684793, 42.82116734918109 17.344172523289764, 42.39042041279239 17.56889292409717 C41.95223060836774 17.76286655207725, 41.514040803943104 17.956840180057323, 41.247394095147804 18.07487676824742 C40.93110651117467 18.19127352287991, 40.61481892720154 18.307670277512397, 40.07429775146062 18.506587066708033 C39.72139042705927 18.611328108142008, 39.36848310265792 18.716069149575983, 38.87595188623541 18.86224982926107 C38.54848171660472 18.93699275853671, 38.22101154697402 19.011735687812354, 37.657280759676766 19.140403561325773 C37.20095864709706 19.214178181656823, 36.74463653451736 19.287952801987874, 36.42329215284788 19.3399052695533 C36.066377961135885 19.374336352375636, 35.70946376942389 19.408767435197976, 35.1790567896239 19.45993515863156 C34.889056111508786 19.469234915926634, 34.59905543339368 19.47853467322171, 33.92968750000001 19.5 C33.92968750000001 19.5, 33.9296875 19.5, 33.9296875 19.5 C19.824172664907486 19.5, 5.718657829814976 19.5, -33.92968749999999 19.5 C-34.21206560348371 19.49094468383691, -34.49444370696742 19.481889367673826, -35.17905678962389 19.45993515863156 C-35.447261658598535 19.43406175748512, -35.71546652757317 19.408188356338687, -36.42329215284787 19.3399052695533 C-36.755402142349894 19.286212302002046, -37.08751213185192 19.232519334450792, -37.65728075967676 19.140403561325773 C-37.97592285239777 19.06767558299618, -38.294564945118786 18.99494760466659, -38.875951886235384 18.862249829261074 C-39.33580624603092 18.725767469098553, -39.795660605826455 18.589285108936032, -40.07429775146059 18.506587066708043 C-40.37609938725922 18.39552127491041, -40.67790102305784 18.284455483112776, -41.2473940951478 18.074876768247425 C-41.52646148410924 17.95134191339416, -41.80552887307069 17.827807058540895, -42.39042041279238 17.568892924097174 C-42.75814859794355 17.37704936544495, -43.125876783094725 17.18520580679273, -43.49867976407678 16.990714730406097 C-43.87769060744271 16.760956129842725, -44.25670145080864 16.531197529279357, -44.567618073605686 16.3427180453909 C-44.89487198309195 16.114439884726696, -45.22212589257822 15.886161724062493, -45.59284284457871 15.627565626425156 C-45.818415363984116 15.447677544936186, -46.04398788338952 15.267789463447217, -46.570141208501866 14.848196188198125 C-46.884558508999255 14.5626507149123, -47.198975809496645 14.277105241626474, -47.495497236767974 14.007812326905697 C-47.7363924922606 13.759068197741268, -47.97728774775322 13.51032406857684, -48.365108442968655 13.109867360095677 C-48.53994905985507 12.904489622787958, -48.71478967674148 12.69911188548024, -49.175401408126575 12.158051136245307 C-49.43022123896479 11.81661577748626, -49.685041069803006 11.475180418727215, -49.923046464640635 11.156274872382316 C-50.12971540459359 10.838775882233698, -50.336384344546545 10.52127689208508, -50.60497137860425 10.108655082055249 C-50.72767142102474 9.890788732011078, -50.850371463445235 9.672922381966908, -51.218373974273504 9.019496659696289 C-51.39847182336033 8.645519622590827, -51.578569672447166 8.271542585485365, -51.76073364880834 7.893275190886686 C-51.93770234437251 7.456159091386222, -52.11467103993668 7.019042991885756, -52.229821729970325 6.73461856121551 C-52.337682780992175 6.409758260862373, -52.44554383201402 6.0848979605092355, -52.62371063421488 5.5482879393051325 C-52.69339434250085 5.282553758500516, -52.763078050786824 5.0168195776959, -52.94078178754556 4.339158212148136 C-53.00848561962646 3.991513343622694, -53.07618945170736 3.6438684750972525, -53.179732276581774 3.112197953150904 C-53.21576696774811 2.8327200043194662, -53.25180165891444 2.553242055488029, -53.33958020250937 1.872449005199809 C-53.36829289011893 1.4252257192165863, -53.39700557772849 0.9780024332333633, -53.41966871591342 0.6250057626472781 C-53.41966871591342 0.33424914040030707, -53.41966871591342 0.04349251815333599, -53.41966871591342 -0.6250057626472687 C-53.390643826392406 -1.0770918454061937, -53.36161893687139 -1.5291779281651185, -53.33958020250937 -1.8724490051997822 C-53.303765374354995 -2.1502217399273245, -53.26795054620062 -2.4279944746548665, -53.179732276581774 -3.112197953150895 C-53.12475203809548 -3.394509857700492, -53.069771799609185 -3.6768217622500896, -52.94078178754556 -4.339158212148126 C-52.85436963130799 -4.668685215147397, -52.767957475070425 -4.9982122181466675, -52.62371063421489 -5.548287939305123 C-52.483879018292264 -5.969438487321634, -52.34404740236964 -6.390589035338145, -52.22982172997033 -6.734618561215485 C-52.052591710064654 -7.172380136891839, -51.875361690158975 -7.610141712568193, -51.76073364880834 -7.893275190886676 C-51.6104552142719 -8.205331575644989, -51.46017677973546 -8.517387960403303, -51.218373974273504 -9.019496659696282 C-51.028037705541784 -9.357457978466623, -50.837701436810065 -9.695419297236963, -50.60497137860425 -10.108655082055243 C-50.38820311319953 -10.441669348146375, -50.17143484779482 -10.774683614237508, -49.92304646464064 -11.156274872382308 C-49.69223937319764 -11.465535347957337, -49.46143228175464 -11.774795823532367, -49.17540140812659 -12.158051136245302 C-49.006722574089984 -12.356190892802257, -48.83804374005338 -12.55433064935921, -48.36510844296866 -13.10986736009567 C-48.09351975354525 -13.390304979771425, -47.82193106412184 -13.67074259944718, -47.495497236767996 -14.007812326905677 C-47.18472187719579 -14.290050285803726, -46.87394651762359 -14.572288244701777, -46.57014120850189 -14.848196188198107 C-46.2098304905223 -15.135534397515944, -45.84951977254271 -15.42287260683378, -45.59284284457872 -15.627565626425149 C-45.295592295044244 -15.8349147420115, -44.99834174550977 -16.042263857597852, -44.567618073605715 -16.342718045390885 C-44.29192382681792 -16.509845517952876, -44.01622958003012 -16.676972990514866, -43.49867976407679 -16.99071473040609 C-43.06361763294441 -17.21768636554726, -42.62855550181202 -17.44465800068843, -42.39042041279239 -17.56889292409717 C-42.10988077502158 -17.69307949982563, -41.82934113725077 -17.81726607555409, -41.247394095147804 -18.07487676824742 C-40.88704494081912 -18.207488588071442, -40.52669578649045 -18.340100407895463, -40.07429775146062 -18.506587066708033 C-39.62545380555715 -18.63980159382223, -39.17660985965369 -18.773016120936433, -38.87595188623541 -18.862249829261067 C-38.5145653352136 -18.94473395126416, -38.15317878419178 -19.027218073267253, -37.657280759676766 -19.140403561325773 C-37.22801554865723 -19.20980383164198, -36.798750337637706 -19.27920410195819, -36.42329215284788 -19.3399052695533 C-36.17038447992088 -19.36430296859459, -35.91747680699387 -19.38870066763588, -35.1790567896239 -19.45993515863156 C-34.70453436800459 -19.47515216909103, -34.23001194638527 -19.4903691795505, -33.92968750000001 -19.5 C-33.92968750000001 -19.5, -33.9296875 -19.5, -33.9296875 -19.5" stroke="none" stroke-width="0" fill="#e3f2fd" style=""/><path d="M-33.9296875 -19.5 C-19.14090411700378 -19.5, -4.352120734007563 -19.5, 33.9296875 -19.5 M-33.9296875 -19.5 C-10.17046132573983 -19.5, 13.588764848520341 -19.5, 33.9296875 -19.5 M33.9296875 -19.5 C33.9296875 -19.5, 33.9296875 -19.5, 33.9296875 -19.5 M33.9296875 -19.5 C33.9296875 -19.5, 33.9296875 -19.5, 33.9296875 -19.5 M33.9296875 -19.5 C34.385995659809424 -19.485367085464866, 34.84230381961884 -19.470734170929727, 35.1790567896239 -19.45993515863156 M33.9296875 -19.5 C34.42816871543334 -19.48401467765588, 34.92664993086668 -19.468029355311756, 35.1790567896239 -19.45993515863156 M35.1790567896239 -19.45993515863156 C35.647296923272954 -19.414764596079586, 36.115537056922 -19.369594033527612, 36.423292152847864 -19.3399052695533 M35.1790567896239 -19.45993515863156 C35.51883370112304 -19.42715728862076, 35.858610612622186 -19.394379418609958, 36.423292152847864 -19.3399052695533 M36.423292152847864 -19.3399052695533 C36.83467196052539 -19.27339657254605, 37.246051768202925 -19.206887875538808, 37.65728075967676 -19.140403561325776 M36.423292152847864 -19.3399052695533 C36.79231067667722 -19.280245216401962, 37.161329200506565 -19.22058516325063, 37.65728075967676 -19.140403561325776 M37.65728075967676 -19.140403561325776 C38.143979081898244 -19.029317845282087, 38.63067740411973 -18.918232129238397, 38.87595188623539 -18.862249829261074 M37.65728075967676 -19.140403561325776 C38.121867256547844 -19.03436472512517, 38.58645375341893 -18.928325888924565, 38.87595188623539 -18.862249829261074 M38.87595188623539 -18.862249829261074 C39.19127610720403 -18.768663255648196, 39.50660032817267 -18.675076682035314, 40.074297751460605 -18.50658706670804 M38.87595188623539 -18.862249829261074 C39.21325851040759 -18.762138993765365, 39.55056513457979 -18.66202815826966, 40.074297751460605 -18.50658706670804 M40.074297751460605 -18.50658706670804 C40.54202056154864 -18.334460749013385, 41.00974337163667 -18.162334431318726, 41.2473940951478 -18.074876768247425 M40.074297751460605 -18.50658706670804 C40.48652563880766 -18.3548833935715, 40.89875352615473 -18.203179720434967, 41.2473940951478 -18.074876768247425 M41.2473940951478 -18.074876768247425 C41.55935484972594 -17.93678099618267, 41.87131560430409 -17.798685224117914, 42.39042041279238 -17.568892924097174 M41.2473940951478 -18.074876768247425 C41.52287670564082 -17.952928788483455, 41.79835931613385 -17.830980808719485, 42.39042041279238 -17.568892924097174 M42.39042041279238 -17.568892924097174 C42.79779671664772 -17.356364967312825, 43.20517302050305 -17.143837010528472, 43.49867976407678 -16.990714730406097 M42.39042041279238 -17.568892924097174 C42.77933810329638 -17.36599481407491, 43.16825579380038 -17.16309670405264, 43.49867976407678 -16.990714730406097 M43.49867976407678 -16.990714730406097 C43.79386834079902 -16.81176968047645, 44.08905691752126 -16.632824630546796, 44.5676180736057 -16.342718045390892 M43.49867976407678 -16.990714730406097 C43.80010197988501 -16.807990811829594, 44.10152419569324 -16.625266893253087, 44.5676180736057 -16.342718045390892 M44.5676180736057 -16.342718045390892 C44.78773042237373 -16.189177199400323, 45.00784277114175 -16.035636353409753, 45.59284284457871 -15.627565626425154 M44.5676180736057 -16.342718045390892 C44.83621745370465 -16.15535474531363, 45.10481683380359 -15.967991445236368, 45.59284284457871 -15.627565626425154 M45.59284284457871 -15.627565626425154 C45.85118767058762 -15.421542502527592, 46.109532496596536 -15.215519378630031, 46.570141208501866 -14.848196188198123 M45.59284284457871 -15.627565626425154 C45.83381708140347 -15.435395085151164, 46.07479131822822 -15.243224543877176, 46.570141208501866 -14.848196188198123 M46.570141208501866 -14.848196188198123 C46.84430657800268 -14.599206453635658, 47.11847194750349 -14.350216719073194, 47.49549723676799 -14.007812326905688 M46.570141208501866 -14.848196188198123 C46.877724358778806 -14.568857309320805, 47.18530750905575 -14.289518430443488, 47.49549723676799 -14.007812326905688 M47.49549723676799 -14.007812326905688 C47.735307426657236 -13.760188617062285, 47.975117616546484 -13.512564907218882, 48.36510844296865 -13.10986736009568 M47.49549723676799 -14.007812326905688 C47.835182309727315 -13.65705960041203, 48.17486738268665 -13.306306873918373, 48.36510844296865 -13.10986736009568 M48.36510844296865 -13.10986736009568 C48.57688639022236 -12.861100932744895, 48.78866433747607 -12.612334505394111, 49.17540140812658 -12.158051136245305 M48.36510844296865 -13.10986736009568 C48.631956864435104 -12.79641202013585, 48.89880528590157 -12.48295668017602, 49.17540140812658 -12.158051136245305 M49.17540140812658 -12.158051136245305 C49.33535922751571 -11.943722230720999, 49.495317046904844 -11.729393325196694, 49.923046464640635 -11.156274872382312 M49.17540140812658 -12.158051136245305 C49.367398008976664 -11.90079318235636, 49.55939460982675 -11.643535228467414, 49.923046464640635 -11.156274872382312 M49.923046464640635 -11.156274872382312 C50.180252864401474 -10.761136772760675, 50.437459264162314 -10.365998673139039, 50.60497137860425 -10.108655082055241 M49.923046464640635 -11.156274872382312 C50.08589658635845 -10.90609335404309, 50.248746708076276 -10.65591183570387, 50.60497137860425 -10.108655082055241 M50.60497137860425 -10.108655082055241 C50.78723270804501 -9.785031635672267, 50.969494037485774 -9.46140818928929, 51.218373974273504 -9.019496659696287 M50.60497137860425 -10.108655082055241 C50.81334486504344 -9.738666856778936, 51.02171835148263 -9.36867863150263, 51.218373974273504 -9.019496659696287 M51.218373974273504 -9.019496659696287 C51.39540511547603 -8.651887707129623, 51.57243625667856 -8.284278754562957, 51.76073364880834 -7.893275190886684 M51.218373974273504 -9.019496659696287 C51.33128829777291 -8.785027650970283, 51.44420262127231 -8.55055864224428, 51.76073364880834 -7.893275190886684 M51.76073364880834 -7.893275190886684 C51.85709817405376 -7.655252950449154, 51.95346269929917 -7.417230710011624, 52.229821729970325 -6.734618561215508 M51.76073364880834 -7.893275190886684 C51.909681462462665 -7.525371211450424, 52.058629276116996 -7.157467232014165, 52.229821729970325 -6.734618561215508 M52.229821729970325 -6.734618561215508 C52.371790751519015 -6.307030488002617, 52.51375977306771 -5.879442414789725, 52.62371063421488 -5.548287939305138 M52.229821729970325 -6.734618561215508 C52.312043869314145 -6.486978577830772, 52.394266008657965 -6.239338594446036, 52.62371063421488 -5.548287939305138 M52.62371063421488 -5.548287939305138 C52.70352753746414 -5.243911494351016, 52.7833444407134 -4.939535049396895, 52.94078178754556 -4.339158212148133 M52.62371063421488 -5.548287939305138 C52.70346948268481 -5.24413288238571, 52.78322833115474 -4.939977825466282, 52.94078178754556 -4.339158212148133 M52.94078178754556 -4.339158212148133 C53.0151730971828 -3.9571745597697636, 53.08956440682004 -3.575190907391394, 53.179732276581774 -3.1121979531509023 M52.94078178754556 -4.339158212148133 C52.99600608436514 -4.055593119638852, 53.05123038118472 -3.7720280271295694, 53.179732276581774 -3.1121979531509023 M53.179732276581774 -3.1121979531509023 C53.21903320035624 -2.8073877492013515, 53.258334124130705 -2.5025775452518007, 53.33958020250937 -1.872449005199798 M53.179732276581774 -3.1121979531509023 C53.216278176286444 -2.82875517184567, 53.252824075991114 -2.5453123905404373, 53.33958020250937 -1.872449005199798 M53.33958020250937 -1.872449005199798 C53.357433927909916 -1.5943628208184828, 53.375287653310465 -1.3162766364371676, 53.41966871591342 -0.6250057626472757 M53.33958020250937 -1.872449005199798 C53.362432739786506 -1.516502290872256, 53.38528527706365 -1.1605555765447142, 53.41966871591342 -0.6250057626472757 M53.41966871591342 -0.6250057626472757 C53.41966871591342 -0.25385938684308756, 53.41966871591342 0.11728698896110057, 53.41966871591342 0.625005762647271 M53.41966871591342 -0.6250057626472757 C53.41966871591342 -0.1981864062279633, 53.41966871591342 0.2286329501913491, 53.41966871591342 0.625005762647271 M53.41966871591342 0.625005762647271 C53.39776547789569 0.9661663747488416, 53.37586223987797 1.3073269868504123, 53.33958020250937 1.8724490051997846 M53.41966871591342 0.625005762647271 C53.390205834582375 1.0839139213880142, 53.36074295325133 1.5428220801287575, 53.33958020250937 1.8724490051997846 M53.33958020250937 1.8724490051997846 C53.2848722054917 2.296753426752823, 53.230164208474044 2.721057848305861, 53.179732276581774 3.1121979531508885 M53.33958020250937 1.8724490051997846 C53.29303144319122 2.233471990379135, 53.24648268387306 2.5944949755584856, 53.179732276581774 3.1121979531508885 M53.179732276581774 3.1121979531508885 C53.12532694708556 3.391557821543475, 53.070921617589356 3.6709176899360614, 52.94078178754556 4.339158212148129 M53.179732276581774 3.1121979531508885 C53.12476777974561 3.3944290276540556, 53.069803282909454 3.676660102157223, 52.94078178754556 4.339158212148129 M52.94078178754556 4.339158212148129 C52.83413229481127 4.745858950126525, 52.72748280207698 5.1525596881049225, 52.62371063421489 5.548287939305125 M52.94078178754556 4.339158212148129 C52.833589376630584 4.747929332451699, 52.72639696571561 5.1567004527552704, 52.62371063421489 5.548287939305125 M52.62371063421489 5.548287939305125 C52.508063012317024 5.896600150515218, 52.39241539041917 6.244912361725312, 52.229821729970325 6.734618561215495 M52.62371063421489 5.548287939305125 C52.51253807350905 5.883121979209022, 52.40136551280321 6.217956019112919, 52.229821729970325 6.734618561215495 M52.229821729970325 6.734618561215495 C52.098745615863734 7.0583790972430425, 51.96766950175714 7.38213963327059, 51.76073364880834 7.893275190886679 M52.229821729970325 6.734618561215495 C52.12546330264818 6.992385894334125, 52.02110487532604 7.2501532274527545, 51.76073364880834 7.893275190886679 M51.76073364880834 7.893275190886679 C51.56681993219017 8.295941172533178, 51.372906215572 8.698607154179678, 51.218373974273504 9.019496659696284 M51.76073364880834 7.893275190886679 C51.55933019847186 8.311493764853866, 51.35792674813539 8.729712338821054, 51.218373974273504 9.019496659696284 M51.218373974273504 9.019496659696284 C50.99172523190392 9.421934452447323, 50.765076489534344 9.824372245198361, 50.60497137860425 10.108655082055236 M51.218373974273504 9.019496659696284 C51.04902798929608 9.320187604164156, 50.87968200431866 9.620878548632028, 50.60497137860425 10.108655082055236 M50.60497137860425 10.108655082055236 C50.43993601421412 10.362193719958942, 50.274900649824 10.615732357862647, 49.92304646464064 11.156274872382301 M50.60497137860425 10.108655082055236 C50.371138867467955 10.467884611981646, 50.13730635633166 10.827114141908055, 49.92304646464064 11.156274872382301 M49.92304646464064 11.156274872382301 C49.62995185264024 11.548994950994386, 49.33685724063984 11.941715029606472, 49.17540140812658 12.158051136245302 M49.92304646464064 11.156274872382301 C49.67051601286358 11.494642671766133, 49.41798556108651 11.833010471149967, 49.17540140812658 12.158051136245302 M49.17540140812658 12.158051136245302 C48.93814933061014 12.436740926521765, 48.7008972530937 12.715430716798227, 48.36510844296866 13.10986736009567 M49.17540140812658 12.158051136245302 C48.94045583304008 12.43403157752385, 48.705510257953584 12.710012018802399, 48.36510844296866 13.10986736009567 M48.36510844296866 13.10986736009567 C48.07940660677136 13.404877962526369, 47.79370477057405 13.699888564957067, 47.49549723676799 14.007812326905684 M48.36510844296866 13.10986736009567 C48.04026684832584 13.445292976555297, 47.715425253683016 13.780718593014925, 47.49549723676799 14.007812326905684 M47.49549723676799 14.007812326905684 C47.166794389998024 14.306331555341423, 46.83809154322806 14.60485078377716, 46.57014120850189 14.848196188198111 M47.49549723676799 14.007812326905684 C47.19068620104225 14.284633644693738, 46.885875165316506 14.561454962481793, 46.57014120850189 14.848196188198111 M46.57014120850189 14.848196188198111 C46.220577388454466 15.126964032402004, 45.87101356840705 15.405731876605898, 45.59284284457871 15.627565626425152 M46.57014120850189 14.848196188198111 C46.3277675353768 15.041482742681048, 46.08539386225171 15.234769297163986, 45.59284284457871 15.627565626425152 M45.59284284457871 15.627565626425152 C45.348132083552926 15.798265259958633, 45.10342132252713 15.968964893492116, 44.56761807360571 16.34271804539089 M45.59284284457871 15.627565626425152 C45.26064046996279 15.859295622148203, 44.92843809534686 16.091025617871253, 44.56761807360571 16.34271804539089 M44.56761807360571 16.34271804539089 C44.22255897494573 16.551894898790916, 43.87749987628574 16.761071752190944, 43.49867976407678 16.990714730406093 M44.56761807360571 16.34271804539089 C44.20943615500398 16.559850029357854, 43.85125423640225 16.776982013324815, 43.49867976407678 16.990714730406093 M43.49867976407678 16.990714730406093 C43.26355751701727 17.113377856094054, 43.02843526995776 17.236040981782015, 42.39042041279239 17.56889292409717 M43.49867976407678 16.990714730406093 C43.064821323761116 17.217058400819184, 42.63096288344545 17.443402071232274, 42.39042041279239 17.56889292409717 M42.39042041279239 17.56889292409717 C42.00810083117709 17.738134461770823, 41.6257812495618 17.90737599944448, 41.247394095147804 18.07487676824742 M42.39042041279239 17.56889292409717 C42.066221034714516 17.712406371739387, 41.742021656636645 17.855919819381604, 41.247394095147804 18.07487676824742 M41.247394095147804 18.07487676824742 C41.01094245493624 18.161893157580277, 40.774490814724686 18.248909546913133, 40.07429775146062 18.506587066708033 M41.247394095147804 18.07487676824742 C40.89111805152507 18.20598964568023, 40.53484200790234 18.337102523113042, 40.07429775146062 18.506587066708033 M40.07429775146062 18.506587066708033 C39.78389550184659 18.592776930040962, 39.493493252232554 18.678966793373895, 38.87595188623541 18.86224982926107 M40.07429775146062 18.506587066708033 C39.73491264218495 18.607314785672262, 39.39552753290928 18.708042504636488, 38.87595188623541 18.86224982926107 M38.87595188623541 18.86224982926107 C38.60278708409245 18.924597912783277, 38.32962228194949 18.986945996305487, 37.657280759676766 19.140403561325773 M38.87595188623541 18.86224982926107 C38.601072756361994 18.92498919690072, 38.326193626488575 18.987728564540372, 37.657280759676766 19.140403561325773 M37.657280759676766 19.140403561325773 C37.238380701397766 19.208128074129853, 36.81948064311876 19.275852586933933, 36.42329215284788 19.3399052695533 M37.657280759676766 19.140403561325773 C37.269333671987326 19.203123837888803, 36.881386584297886 19.265844114451834, 36.42329215284788 19.3399052695533 M36.42329215284788 19.3399052695533 C36.040265330446765 19.376855406453185, 35.65723850804566 19.413805543353067, 35.1790567896239 19.45993515863156 M36.42329215284788 19.3399052695533 C35.95886306981211 19.384708184636068, 35.494433986776336 19.429511099718837, 35.1790567896239 19.45993515863156 M35.1790567896239 19.45993515863156 C34.70100111828575 19.475265473532456, 34.222945446947605 19.490595788433357, 33.92968750000001 19.5 M35.1790567896239 19.45993515863156 C34.752434897535025 19.47361609234171, 34.32581300544615 19.487297026051863, 33.92968750000001 19.5 M33.92968750000001 19.5 C33.92968750000001 19.5, 33.9296875 19.5, 33.9296875 19.5 M33.92968750000001 19.5 C33.92968750000001 19.5, 33.92968750000001 19.5, 33.9296875 19.5 M33.9296875 19.5 C13.715928269209414 19.5, -6.4978309615811725 19.5, -33.92968749999999 19.5 M33.9296875 19.5 C14.78993108187251 19.5, -4.34982533625498 19.5, -33.92968749999999 19.5 M-33.92968749999999 19.5 C-34.335217698654915 19.486995435845785, -34.74074789730984 19.473990871691566, -35.17905678962389 19.45993515863156 M-33.92968749999999 19.5 C-34.19112517136731 19.491616202736807, -34.45256284273462 19.483232405473615, -35.17905678962389 19.45993515863156 M-35.17905678962389 19.45993515863156 C-35.46130968146663 19.432706561614257, -35.74356257330937 19.405477964596955, -36.42329215284787 19.3399052695533 M-35.17905678962389 19.45993515863156 C-35.46730926571317 19.43212778893755, -35.755561741802445 19.40432041924354, -36.42329215284787 19.3399052695533 M-36.42329215284787 19.3399052695533 C-36.80312415251654 19.278496977488018, -37.182956152185206 19.217088685422738, -37.65728075967676 19.140403561325773 M-36.42329215284787 19.3399052695533 C-36.859884201526576 19.26932045294483, -37.29647625020528 19.198735636336362, -37.65728075967676 19.140403561325773 M-37.65728075967676 19.140403561325773 C-38.05883866417266 19.0487505900348, -38.46039656866857 18.957097618743827, -38.875951886235384 18.862249829261074 M-37.65728075967676 19.140403561325773 C-37.95456927965231 19.072549396630247, -38.251857799627864 19.004695231934722, -38.875951886235384 18.862249829261074 M-38.875951886235384 18.862249829261074 C-39.12723192659296 18.787671232278793, -39.37851196695055 18.713092635296512, -40.07429775146059 18.506587066708043 M-38.875951886235384 18.862249829261074 C-39.165443044635964 18.77633037301788, -39.454934203036544 18.69041091677469, -40.07429775146059 18.506587066708043 M-40.07429775146059 18.506587066708043 C-40.31204279379209 18.41909469343897, -40.54978783612359 18.3316023201699, -41.2473940951478 18.074876768247425 M-40.07429775146059 18.506587066708043 C-40.44081227948783 18.371706332370863, -40.80732680751507 18.236825598033683, -41.2473940951478 18.074876768247425 M-41.2473940951478 18.074876768247425 C-41.56655545959911 17.933593499790323, -41.88571682405041 17.79231023133322, -42.39042041279238 17.568892924097174 M-41.2473940951478 18.074876768247425 C-41.51113067996269 17.95812840561769, -41.77486726477759 17.841380042987957, -42.39042041279238 17.568892924097174 M-42.39042041279238 17.568892924097174 C-42.688072309041644 17.413608120479072, -42.9857242052909 17.258323316860974, -43.49867976407678 16.990714730406097 M-42.39042041279238 17.568892924097174 C-42.79336265136833 17.358678216328926, -43.196304889944265 17.14846350856068, -43.49867976407678 16.990714730406097 M-43.49867976407678 16.990714730406097 C-43.912378926392456 16.7399278670442, -44.32607808870814 16.489141003682303, -44.567618073605686 16.3427180453909 M-43.49867976407678 16.990714730406097 C-43.87399801347866 16.763194602003825, -44.24931626288054 16.535674473601553, -44.567618073605686 16.3427180453909 M-44.567618073605686 16.3427180453909 C-44.83725252117615 16.154632727052856, -45.106886968746615 15.966547408714813, -45.59284284457871 15.627565626425156 M-44.567618073605686 16.3427180453909 C-44.853561757916836 16.14325610951803, -45.13950544222799 15.943794173645164, -45.59284284457871 15.627565626425156 M-45.59284284457871 15.627565626425156 C-45.94449057095331 15.347135922380408, -46.296138297327914 15.06670621833566, -46.570141208501866 14.848196188198125 M-45.59284284457871 15.627565626425156 C-45.791036716417395 15.469511287794239, -45.98923058825607 15.311456949163322, -46.570141208501866 14.848196188198125 M-46.570141208501866 14.848196188198125 C-46.876070022076355 14.570359734142619, -47.18199883565085 14.29252328008711, -47.495497236767974 14.007812326905697 M-46.570141208501866 14.848196188198125 C-46.85635903662716 14.58826072960348, -47.14257686475246 14.328325271008834, -47.495497236767974 14.007812326905697 M-47.495497236767974 14.007812326905697 C-47.754964203276394 13.739891381351631, -48.014431169784814 13.471970435797564, -48.365108442968655 13.109867360095677 M-47.495497236767974 14.007812326905697 C-47.71851660732323 13.77752651657655, -47.94153597787849 13.547240706247402, -48.365108442968655 13.109867360095677 M-48.365108442968655 13.109867360095677 C-48.606895418947374 12.82585062004239, -48.848682394926094 12.541833879989102, -49.175401408126575 12.158051136245307 M-48.365108442968655 13.109867360095677 C-48.578991133193945 12.858628581887205, -48.79287382341924 12.607389803678732, -49.175401408126575 12.158051136245307 M-49.175401408126575 12.158051136245307 C-49.34112009596958 11.936003191818731, -49.506838783812576 11.713955247392153, -49.923046464640635 11.156274872382316 M-49.175401408126575 12.158051136245307 C-49.3519284365625 11.921521000084295, -49.52845546499843 11.684990863923284, -49.923046464640635 11.156274872382316 M-49.923046464640635 11.156274872382316 C-50.17288517795315 10.772455517646133, -50.42272389126566 10.38863616290995, -50.60497137860425 10.108655082055249 M-49.923046464640635 11.156274872382316 C-50.13408384529153 10.832064784231086, -50.34512122594242 10.507854696079857, -50.60497137860425 10.108655082055249 M-50.60497137860425 10.108655082055249 C-50.76538817382172 9.823818818184671, -50.9258049690392 9.538982554314094, -51.218373974273504 9.019496659696289 M-50.60497137860425 10.108655082055249 C-50.80614697980403 9.751447430886431, -51.00732258100381 9.394239779717616, -51.218373974273504 9.019496659696289 M-51.218373974273504 9.019496659696289 C-51.33952900502856 8.767915646031039, -51.460684035783615 8.516334632365789, -51.76073364880834 7.893275190886686 M-51.218373974273504 9.019496659696289 C-51.412047039359656 8.617330396105148, -51.60572010444581 8.215164132514007, -51.76073364880834 7.893275190886686 M-51.76073364880834 7.893275190886686 C-51.887043367704095 7.581287743181891, -52.01335308659985 7.2693002954770956, -52.229821729970325 6.73461856121551 M-51.76073364880834 7.893275190886686 C-51.88485084960146 7.586703305284852, -52.00896805039458 7.280131419683016, -52.229821729970325 6.73461856121551 M-52.229821729970325 6.73461856121551 C-52.329503018618894 6.434394401862548, -52.429184307267455 6.134170242509585, -52.62371063421488 5.5482879393051325 M-52.229821729970325 6.73461856121551 C-52.33312799232661 6.423476558616036, -52.43643425468289 6.112334556016563, -52.62371063421488 5.5482879393051325 M-52.62371063421488 5.5482879393051325 C-52.73209190356419 5.134983186536941, -52.840473172913505 4.72167843376875, -52.94078178754556 4.339158212148136 M-52.62371063421488 5.5482879393051325 C-52.715372382923775 5.198741965024924, -52.807034131632676 4.8491959907447155, -52.94078178754556 4.339158212148136 M-52.94078178754556 4.339158212148136 C-52.99688093985524 4.051100921597993, -53.05298009216491 3.763043631047852, -53.179732276581774 3.112197953150904 M-52.94078178754556 4.339158212148136 C-53.00848448797403 3.99151915441874, -53.0761871884025 3.643880096689344, -53.179732276581774 3.112197953150904 M-53.179732276581774 3.112197953150904 C-53.240390960056914 2.6417411825296435, -53.30104964353205 2.1712844119083834, -53.33958020250937 1.872449005199809 M-53.179732276581774 3.112197953150904 C-53.23513286532322 2.6825219269559177, -53.290533454064665 2.2528459007609314, -53.33958020250937 1.872449005199809 M-53.33958020250937 1.872449005199809 C-53.35786323097309 1.5876760790824143, -53.37614625943681 1.3029031529650195, -53.41966871591342 0.6250057626472781 M-53.33958020250937 1.872449005199809 C-53.36530687340579 1.4717353397929693, -53.391033544302225 1.0710216743861296, -53.41966871591342 0.6250057626472781 M-53.41966871591342 0.6250057626472781 C-53.41966871591342 0.2500627907778124, -53.41966871591342 -0.12488018109165333, -53.41966871591342 -0.6250057626472687 M-53.41966871591342 0.6250057626472781 C-53.41966871591342 0.3054328610407854, -53.41966871591342 -0.01414004056570739, -53.41966871591342 -0.6250057626472687 M-53.41966871591342 -0.6250057626472687 C-53.40256345172402 -0.8914340595178204, -53.38545818753463 -1.157862356388372, -53.33958020250937 -1.8724490051997822 M-53.41966871591342 -0.6250057626472687 C-53.40069223143 -0.9205798260190245, -53.38171574694659 -1.2161538893907804, -53.33958020250937 -1.8724490051997822 M-53.33958020250937 -1.8724490051997822 C-53.3045643041067 -2.144025398539651, -53.26954840570403 -2.4156017918795203, -53.179732276581774 -3.112197953150895 M-53.33958020250937 -1.8724490051997822 C-53.302976359153966 -2.1563411860178148, -53.266372515798565 -2.440233366835847, -53.179732276581774 -3.112197953150895 M-53.179732276581774 -3.112197953150895 C-53.09193418727167 -3.563022585625538, -53.00413609796156 -4.013847218100181, -52.94078178754556 -4.339158212148126 M-53.179732276581774 -3.112197953150895 C-53.093373882307596 -3.5556300558956977, -53.007015488033424 -3.9990621586405, -52.94078178754556 -4.339158212148126 M-52.94078178754556 -4.339158212148126 C-52.866717247509705 -4.621598403079559, -52.79265270747385 -4.9040385940109905, -52.62371063421489 -5.548287939305123 M-52.94078178754556 -4.339158212148126 C-52.824218750874664 -4.783663589713907, -52.707655714203774 -5.228168967279688, -52.62371063421489 -5.548287939305123 M-52.62371063421489 -5.548287939305123 C-52.52832564629807 -5.835572325376613, -52.432940658381256 -6.122856711448103, -52.22982172997033 -6.734618561215485 M-52.62371063421489 -5.548287939305123 C-52.48846449948067 -5.955627748579361, -52.35321836474645 -6.362967557853599, -52.22982172997033 -6.734618561215485 M-52.22982172997033 -6.734618561215485 C-52.085987093145604 -7.089892895026077, -51.94215245632088 -7.445167228836668, -51.76073364880834 -7.893275190886676 M-52.22982172997033 -6.734618561215485 C-52.06244830434634 -7.148034158451788, -51.89507487872235 -7.56144975568809, -51.76073364880834 -7.893275190886676 M-51.76073364880834 -7.893275190886676 C-51.63634644639278 -8.15156787816237, -51.511959243977216 -8.409860565438064, -51.218373974273504 -9.019496659696282 M-51.76073364880834 -7.893275190886676 C-51.55599314558818 -8.31842322656833, -51.35125264236802 -8.743571262249983, -51.218373974273504 -9.019496659696282 M-51.218373974273504 -9.019496659696282 C-51.07913768648621 -9.266724787865623, -50.93990139869892 -9.513952916034967, -50.60497137860425 -10.108655082055243 M-51.218373974273504 -9.019496659696282 C-50.98513777382357 -9.433631151321453, -50.75190157337364 -9.847765642946625, -50.60497137860425 -10.108655082055243 M-50.60497137860425 -10.108655082055243 C-50.362624140105815 -10.480965519734335, -50.12027690160739 -10.853275957413427, -49.92304646464064 -11.156274872382308 M-50.60497137860425 -10.108655082055243 C-50.34633878551273 -10.505984197619338, -50.087706192421216 -10.903313313183432, -49.92304646464064 -11.156274872382308 M-49.92304646464064 -11.156274872382308 C-49.62956379031202 -11.549514919161004, -49.3360811159834 -11.942754965939697, -49.17540140812659 -12.158051136245302 M-49.92304646464064 -11.156274872382308 C-49.64226572448224 -11.532495484542915, -49.361484984323845 -11.908716096703522, -49.17540140812659 -12.158051136245302 M-49.17540140812659 -12.158051136245302 C-49.00748307184038 -12.35529756887109, -48.83956473555418 -12.55254400149688, -48.36510844296866 -13.10986736009567 M-49.17540140812659 -12.158051136245302 C-48.99675184007468 -12.367903084327468, -48.81810227202278 -12.577755032409632, -48.36510844296866 -13.10986736009567 M-48.36510844296866 -13.10986736009567 C-48.02147137351415 -13.464700847435548, -47.67783430405964 -13.819534334775426, -47.495497236767996 -14.007812326905677 M-48.36510844296866 -13.10986736009567 C-48.135155091749944 -13.347313074750245, -47.90520174053122 -13.584758789404821, -47.495497236767996 -14.007812326905677 M-47.495497236767996 -14.007812326905677 C-47.18760789372102 -14.287429281955324, -46.87971855067405 -14.56704623700497, -46.57014120850189 -14.848196188198107 M-47.495497236767996 -14.007812326905677 C-47.21307786062076 -14.264298131915378, -46.930658484473526 -14.52078393692508, -46.57014120850189 -14.848196188198107 M-46.57014120850189 -14.848196188198107 C-46.34322133159183 -15.02915875144235, -46.11630145468177 -15.210121314686596, -45.59284284457872 -15.627565626425149 M-46.57014120850189 -14.848196188198107 C-46.30061656098076 -15.063134922244117, -46.03109191345963 -15.278073656290127, -45.59284284457872 -15.627565626425149 M-45.59284284457872 -15.627565626425149 C-45.22668074440068 -15.882984456607506, -44.86051864422264 -16.138403286789863, -44.567618073605715 -16.342718045390885 M-45.59284284457872 -15.627565626425149 C-45.26870993092189 -15.853666715504472, -44.944577017265054 -16.079767804583796, -44.567618073605715 -16.342718045390885 M-44.567618073605715 -16.342718045390885 C-44.3237003076845 -16.490582428512223, -44.07978254176329 -16.638446811633564, -43.49867976407679 -16.99071473040609 M-44.567618073605715 -16.342718045390885 C-44.27156590698123 -16.522186608594293, -43.975513740356746 -16.7016551717977, -43.49867976407679 -16.99071473040609 M-43.49867976407679 -16.99071473040609 C-43.17829002072933 -17.15786185429104, -42.85790027738186 -17.325008978175987, -42.39042041279239 -17.56889292409717 M-43.49867976407679 -16.99071473040609 C-43.07924284406261 -17.20953470291532, -42.65980592404843 -17.428354675424547, -42.39042041279239 -17.56889292409717 M-42.39042041279239 -17.56889292409717 C-41.94816038368294 -17.764668319806287, -41.505900354573484 -17.960443715515403, -41.247394095147804 -18.07487676824742 M-42.39042041279239 -17.56889292409717 C-42.018541041535656 -17.733512890342926, -41.64666167027892 -17.89813285658868, -41.247394095147804 -18.07487676824742 M-41.247394095147804 -18.07487676824742 C-40.795875410087866 -18.241039818142447, -40.344356725027936 -18.407202868037476, -40.07429775146062 -18.506587066708033 M-41.247394095147804 -18.07487676824742 C-40.88707145295975 -18.207478831358618, -40.52674881077169 -18.340080894469814, -40.07429775146062 -18.506587066708033 M-40.07429775146062 -18.506587066708033 C-39.73657502455148 -18.606821399311897, -39.398852297642335 -18.707055731915762, -38.87595188623541 -18.862249829261067 M-40.07429775146062 -18.506587066708033 C-39.63007382869342 -18.638430395206385, -39.18584990592621 -18.770273723704737, -38.87595188623541 -18.862249829261067 M-38.87595188623541 -18.862249829261067 C-38.486653260865516 -18.951104700090802, -38.09735463549562 -19.039959570920537, -37.657280759676766 -19.140403561325773 M-38.87595188623541 -18.862249829261067 C-38.6040074987007 -18.924319361112893, -38.33206311116599 -18.986388892964715, -37.657280759676766 -19.140403561325773 M-37.657280759676766 -19.140403561325773 C-37.37258511034875 -19.186430946061392, -37.087889461020744 -19.23245833079701, -36.42329215284788 -19.3399052695533 M-37.657280759676766 -19.140403561325773 C-37.22996072163315 -19.209489351160276, -36.80264068358952 -19.278575140994782, -36.42329215284788 -19.3399052695533 M-36.42329215284788 -19.3399052695533 C-36.02708584644484 -19.3781268154242, -35.63087954004181 -19.416348361295103, -35.1790567896239 -19.45993515863156 M-36.42329215284788 -19.3399052695533 C-36.015473058481824 -19.37924708711257, -35.60765396411578 -19.418588904671847, -35.1790567896239 -19.45993515863156 M-35.1790567896239 -19.45993515863156 C-34.88015874491071 -19.46952023715576, -34.581260700197525 -19.479105315679963, -33.92968750000001 -19.5 M-35.1790567896239 -19.45993515863156 C-34.880176883183154 -19.46951965549667, -34.58129697674241 -19.479104152361774, -33.92968750000001 -19.5 M-33.92968750000001 -19.5 C-33.92968750000001 -19.5, -33.92968750000001 -19.5, -33.9296875 -19.5 M-33.92968750000001 -19.5 C-33.92968750000001 -19.5, -33.9296875 -19.5, -33.9296875 -19.5" stroke="#90caf9" stroke-width="1.3" fill="none" stroke-dasharray="0 0" style=""/></g><g class="label" style="" transform="translate(-41.0546875, -12)"><rect/><foreignObject width="82.109375" height="24"><div xmlns="http://www.w3.org/1999/xhtml" style="display: table-cell; white-space: nowrap; line-height: 1.5; max-width: 200px; text-align: center;"><span class="nodeLabel"><p>Demuxing</p></span></div></foreignObject></g></g><g class="node default" id="my-svg-flowchart-A-4" data-look="classic" transform="translate(76.015625, 478)"><rect class="basic label-container" style="" x="-68.015625" y="-39" width="136.03125" height="78"/><g class="label" style="" transform="translate(-38.015625, -24)"><rect/><foreignObject width="76.03125" height="48"><div xmlns="http://www.w3.org/1999/xhtml" style="display: table-cell; white-space: nowrap; line-height: 1.5; max-width: 200px; text-align: center;"><span class="nodeLabel"><p>Sample A<br />(SID = A)</p></span></div></foreignObject></g></g><g class="node default" id="my-svg-flowchart-B-5" data-look="classic" transform="translate(262.0625, 478)"><rect class="basic label-container" style="" x="-68.03125" y="-39" width="136.0625" height="78"/><g class="label" style="" transform="translate(-38.03125, -24)"><rect/><foreignObject width="76.0625" height="48"><div xmlns="http://www.w3.org/1999/xhtml" style="display: table-cell; white-space: nowrap; line-height: 1.5; max-width: 200px; text-align: center;"><span class="nodeLabel"><p>Sample B<br />(SID = B)</p></span></div></foreignObject></g></g><g class="node default" id="my-svg-flowchart-C-6" data-look="classic" transform="translate(448.21875, 478)"><rect class="basic label-container" style="" x="-68.125" y="-39" width="136.25" height="78"/><g class="label" style="" transform="translate(-38.125, -24)"><rect/><foreignObject width="76.25" height="48"><div xmlns="http://www.w3.org/1999/xhtml" style="display: table-cell; white-space: nowrap; line-height: 1.5; max-width: 200px; text-align: center;"><span class="nodeLabel"><p>Sample C<br />(SID = C)</p></span></div></foreignObject></g></g></g></g></g><defs><filter id="my-svg-drop-shadow" height="130%" width="130%"><feDropShadow dx="4" dy="4" stdDeviation="0" flood-opacity="0.06" flood-color="#000000"/></filter></defs><defs><filter id="my-svg-drop-shadow-small" height="150%" width="150%"><feDropShadow dx="2" dy="2" stdDeviation="0" flood-opacity="0.06" flood-color="#000000"/></filter></defs><linearGradient id="my-svg-gradient" gradientUnits="objectBoundingBox" x1="0%" y1="0%" x2="100%" y2="0%"><stop offset="0%" stop-color="#90caf9" stop-opacity="1"/><stop offset="100%" stop-color="hsl(292.5, 4.4444444444%, 82.9411764706%)" stop-opacity="1"/></linearGradient></svg>
